<?xml version="1.0" encoding="UTF-8"?>
<svg id="Layer_2" xmlns="http://www.w3.org/2000/svg" version="1.1" viewBox="0 0 759.11 694.25">
  <!-- Generator: Adobe Illustrator 29.8.2, SVG Export Plug-In . SVG Version: 2.1.1 Build 3)  -->
  <defs>
    <style>
      .st0 {
        fill: #fff;
      }
    </style>
  </defs>
  <path class="st0" d="M189.28,401.2h52.91v15.24c43.34-15.65,82.82-12.07,118.1,19.17,10.48-10.22,22.63-17.88,36.57-22.62,46.15-15.7,96.7.88,120.39,39.54,11.66,19.02,14.72,39.89,14.42,61.86-.4,29.64-.64,59.34.73,88.93,1.1,23.8,20.93,40.49,44.78,40.3,23.24-.19,41.98-17.41,44.2-40.62.19-2.04.45-4.07.72-6.46h53.35c1,11.78-1.09,23.04-5.09,33.85-13.98,37.81-41.69,58.31-81.32,62.97-30.19,3.56-57.49-3.64-80.5-24.05-18.49-16.41-29.24-37.41-30.25-61.97-1.39-33.78-1.35-67.64-1.17-101.46.15-27.51-17.5-47.34-43.86-47.83-26.55-.49-45.64,18.31-45.92,45.79-.28,28.28-.06,56.56-.07,84.84,0,2.51,0,5.03,0,8.09h-53.91c0-2.36.01-4.81,0-7.26-.14-28.04-.04-56.09-.5-84.12-.7-42.95-39.13-55.44-65.39-42.9-15.88,7.59-24,21.19-24.45,38.33-.76,29.19-.34,58.41-.42,87.61,0,2.71,0,5.42,0,8.5h-53.34v-195.76Z"/>
  <path class="st0" d="M236.56,44.7c-14.75,10.72-28.92,21.03-43.64,31.73-6.7-12.34-16.27-20.6-29.43-24.12-29.14-7.8-55.48,11.04-56.71,41.28-.82,20.12-.15,40.3-.15,61.42h56.3v50.2h-56.39v8.82c0,84.59.02,169.18,0,253.78-.01,49.76-35.73,89.44-85.39,94.86-6.85.75-13.74,1.11-21.14,1.69v-50.99c5.71-.37,11.55-.08,17.1-1.23,20.5-4.22,34.73-22.18,35.29-44.13.24-9.26.08-18.54.08-27.81,0-113.33.36-226.66-.15-339.99C52.07,45.71,88.98,4.09,142.41.35c37.43-2.62,68.71,9.12,91.44,40.15.81,1.11,1.49,2.31,2.7,4.2Z"/>
  <path class="st0" d="M287.24,351.65c-58.01.56-100.25-43.77-98.82-101.08,1.36-54.28,42.89-95.37,99.16-95.4,57.55-.02,99.74,41.69,99.71,98.57-.03,56.88-42,97.95-100.05,97.91ZM287.84,301.24c26.05-.01,45.02-20.08,45.1-47.7.08-27.66-18.62-47.57-44.96-47.85-26.38-.28-45.4,19.87-45.34,48.03.06,27.64,18.98,47.54,45.2,47.53Z"/>
  <path class="st0" d="M759.08,474.54c-.05,57.54-41.17,97.92-99.65,97.85-57.24-.07-99.55-41.83-98.91-98.36.71-61.88,47.54-99.19,102.2-98,54.31,1.19,97.69,41.94,96.36,98.5ZM705.03,479.64c.47-33.47-18.72-54.53-47.84-53.12-19.65.95-34.62,13.36-39.96,31.16-6.26,20.82-.41,43.07,14.94,54.78,14.73,11.24,31.01,12.87,47.63,5,17.82-8.43,24.71-23.93,25.24-37.83Z"/>
  <path class="st0" d="M416.26,155.58h53.17v12.92c17.18-12.25,35.51-15.01,55.37-12.85v49.5c-6.44.33-13.07.36-19.62,1.06-20.24,2.16-35.46,18.99-35.54,39.41-.13,32.91-.04,65.82-.04,98.74,0,2.05,0,4.1,0,6.72h-53.34v-195.5Z"/>
  <path class="st0" d="M599.1,301.55h121.97v49.68h-121.97v-49.68Z"/>
</svg>